<?xml version="1.0" encoding="UTF-8" standalone="no"?>
<!-- Generator: Adobe Illustrator 16.0.0, SVG Export Plug-In . SVG Version: 6.00 Build 0)  -->

<svg
   xmlns:dc="http://purl.org/dc/elements/1.1/"
   xmlns:cc="http://creativecommons.org/ns#"
   xmlns:rdf="http://www.w3.org/1999/02/22-rdf-syntax-ns#"
   xmlns:svg="http://www.w3.org/2000/svg"
   xmlns="http://www.w3.org/2000/svg"
   xmlns:sodipodi="http://sodipodi.sourceforge.net/DTD/sodipodi-0.dtd"
   xmlns:inkscape="http://www.inkscape.org/namespaces/inkscape"
   version="1.1"
   id="Layer_1"
   x="0px"
   y="0px"
   width="955.71899"
   height="766.07001"
   viewBox="0 0 955.71899 766.07002"
   enable-background="new 0 0 1000 766.071"
   xml:space="preserve"
   inkscape:version="0.91 r13725"
   sodipodi:docname="FX_Networks.svg"><metadata
     id="metadata29"><rdf:RDF><cc:Work
         rdf:about=""><dc:format>image/svg+xml</dc:format><dc:type
           rdf:resource="http://purl.org/dc/dcmitype/StillImage" /><dc:title></dc:title></cc:Work></rdf:RDF></metadata><defs
     id="defs27" /><sodipodi:namedview
     pagecolor="#ffffff"
     bordercolor="#666666"
     borderopacity="1"
     objecttolerance="10"
     gridtolerance="10"
     guidetolerance="10"
     inkscape:pageopacity="0"
     inkscape:pageshadow="2"
     inkscape:window-width="1680"
     inkscape:window-height="931"
     id="namedview25"
     showgrid="false"
     inkscape:zoom="0.30806545"
     inkscape:cx="29.320794"
     inkscape:cy="383.03549"
     inkscape:window-x="0"
     inkscape:window-y="1"
     inkscape:window-maximized="1"
     inkscape:current-layer="g3" /><g
     id="g3"
     transform="translate(0,-7.3242187e-6)"><polygon
       points="0,570.184 198.665,570.184 198.665,384.725 393.889,384.725 393.889,229.471 198.665,229.471 198.665,160.685 464.353,160.685 544.893,285.901 362.709,570.268 587.019,570.268 657.483,460.953 727.781,570.268 952.878,570.268 770.197,286.128 954.662,0 728.05,0 657.276,110.476 586.251,0 361.009,0 361.071,0.062 0,0.062 "
       id="polygon7" /><polygon
       points="21.146,764.6 2.985,764.6 2.985,613.616 18.491,613.616 93.02,725.168 93.02,613.616 111.159,613.616 111.159,764.6 95.922,764.6 21.146,653.315 "
       id="polygon9" /><polygon
       points="156.663,745.735 215.954,745.735 215.954,764.6 136.348,764.6 136.348,613.616 215.954,613.616 215.954,632.731 156.663,632.731 156.663,679.188 211.6,679.188 211.6,698.053 156.663,698.053 "
       id="polygon11" /><polygon
       points="228.538,613.616 329.208,613.616 329.208,632.731 289.031,632.731 289.031,764.6 268.694,764.6 268.694,632.731 228.538,632.731 "
       id="polygon13" /><polygon
       points="481.436,613.616 503.928,613.616 468.582,764.6 447.768,764.6 420.922,652.092 392.831,764.6 372.265,764.6 336.94,613.616 359.931,613.616 383.895,731.223 384.374,731.223 412.691,613.616 430.125,613.616 457.948,729.522 458.176,729.522 "
       id="polygon15" /><path
       d="m 534.9,709.932 c 0,10.158 0.955,16.938 3.38,21.539 4.603,9.91 13.808,14.762 27.593,14.762 13.807,0 22.991,-4.852 27.572,-14.762 2.426,-4.602 3.399,-11.381 3.399,-21.539 l 0,-41.648 c 0,-10.139 -0.974,-16.938 -3.399,-21.52 -4.581,-9.93 -13.766,-14.781 -27.572,-14.781 -13.785,0 -22.99,4.852 -27.593,14.781 -2.425,4.582 -3.38,11.381 -3.38,21.52 l 0,41.648 z m -20.336,-41.877 c 0,-19.84 2.425,-31.947 12.832,-42.352 8.729,-8.688 22.991,-13.539 38.477,-13.539 15.486,0 29.77,4.852 38.477,13.539 10.387,10.404 12.812,22.512 12.812,42.352 l 0,42.105 c 0,19.84 -2.425,31.947 -12.812,42.105 -8.707,8.975 -22.99,13.805 -38.477,13.805 -15.485,0 -29.748,-4.83 -38.477,-13.805 -10.407,-10.158 -12.832,-22.266 -12.832,-42.105 l 0,-42.105 z"
       id="path17"
       inkscape:connector-curvature="0" /><path
       d="m 660.717,690.797 20.337,0 c 25.188,0 34.87,-8.707 34.87,-30.246 0,-23.24 -15.28,-27.82 -37.274,-27.82 l -17.933,0 0,58.066 z m 19.135,-77.181 c 34.601,0 56.636,8.459 56.636,47.412 0,27.365 -13.806,41.627 -35.346,47.453 l 31.221,56.119 -23.468,0 -28.816,-54.918 -19.361,0 0,54.918 -20.318,0 0,-150.984 39.452,0 z"
       id="path19"
       inkscape:connector-curvature="0" /><polygon
       points="777.122,694.446 777.122,764.6 756.784,764.6 756.784,613.616 777.122,613.616 777.122,682.588 828.181,613.616 851.669,613.616 796.711,686.692 856.002,764.6 829.156,764.6 "
       id="polygon21" /><path
       d="m 883.119,722.018 c 0.498,15.736 8.956,24.939 26.619,24.939 16.937,0 24.918,-9.93 24.918,-22.285 0,-14.99 -14.511,-20.795 -30.972,-27.344 -19.114,-7.734 -40.156,-15.963 -40.156,-43.557 0,-27.344 19.819,-41.607 43.783,-41.607 28.796,0 44.531,15.486 44.779,45.008 l -20.089,0 c -0.248,-18.391 -8.707,-25.893 -24.192,-25.893 -15.485,0 -23.239,8.229 -23.239,20.336 0,14.512 14.057,20.564 30.495,27.346 18.886,8.209 40.654,17.66 40.654,44.031 0,23.24 -13.31,43.078 -45.981,43.078 -29.521,0 -46.957,-15.982 -46.957,-44.053 l 20.338,0 z"
       id="path23"
       inkscape:connector-curvature="0" /></g></svg>